<svg xmlns="http://www.w3.org/2000/svg" xmlns:xlink="http://www.w3.org/1999/xlink" viewBox="0 0 564.63 564.63"><defs><style>.cls-1{fill:url(#Degradado_sin_nombre_17);}.cls-2{isolation:isolate;}.cls-3{clip-path:url(#clip-path);}.cls-4{fill:url(#Degradado_sin_nombre_17-3);}.cls-5{fill:url(#Degradado_sin_nombre_5);}.cls-6{fill:url(#Degradado_sin_nombre_5-2);}.cls-7{fill:url(#Degradado_sin_nombre_5-3);}.cls-8{fill:url(#Degradado_sin_nombre_5-4);}.cls-9{fill:url(#Degradado_sin_nombre_5-5);}.cls-10{fill:url(#Degradado_sin_nombre_5-6);}.cls-11{fill:url(#Degradado_sin_nombre_5-7);}.cls-12{fill:url(#Degradado_sin_nombre_5-8);}.cls-13,.cls-22{mix-blend-mode:color-dodge;}.cls-14{fill:url(#Degradado_sin_nombre_5-9);}.cls-15{fill:url(#Degradado_sin_nombre_5-10);}.cls-16{fill:url(#Degradado_sin_nombre_5-11);}.cls-17{fill:url(#Degradado_sin_nombre_5-12);}.cls-18{fill:url(#Degradado_sin_nombre_5-13);}.cls-19{fill:url(#Degradado_sin_nombre_5-14);}.cls-20{fill:url(#Degradado_sin_nombre_5-15);}.cls-21{fill:url(#Degradado_sin_nombre_5-16);}.cls-22{fill:url(#Degradado_sin_nombre_5-17);}</style><linearGradient id="Degradado_sin_nombre_17" x1="222.63" x2="222.63" y2="445.27" gradientUnits="userSpaceOnUse"><stop offset="0.37" stop-color="#76e7ae"/><stop offset="1" stop-color="#498264"/></linearGradient><clipPath id="clip-path" transform="translate(57.44 2.57)"><circle class="cls-1" cx="222.63" cy="222.63" r="222.63"/></clipPath><linearGradient id="Degradado_sin_nombre_17-3" x1="282.32" x2="282.32" y2="564.63" xlink:href="#Degradado_sin_nombre_17"/><linearGradient id="Degradado_sin_nombre_5" x1="145.61" y1="155.38" x2="145.61" y2="362.79" gradientUnits="userSpaceOnUse"><stop offset="0" stop-color="#323230"/><stop offset="0.3" stop-color="#282826"/><stop offset="0.81" stop-color="#0c0c0c"/><stop offset="1"/></linearGradient><linearGradient id="Degradado_sin_nombre_5-2" x1="186.33" y1="82.48" x2="186.33" y2="208.27" xlink:href="#Degradado_sin_nombre_5"/><linearGradient id="Degradado_sin_nombre_5-3" x1="320.26" y1="300.99" x2="320.26" y2="339.62" xlink:href="#Degradado_sin_nombre_5"/><linearGradient id="Degradado_sin_nombre_5-4" x1="125.02" y1="301.03" x2="125.02" y2="339.66" xlink:href="#Degradado_sin_nombre_5"/><linearGradient id="Degradado_sin_nombre_5-5" x1="320.23" y1="105.76" x2="320.23" y2="144.27" xlink:href="#Degradado_sin_nombre_5"/><linearGradient id="Degradado_sin_nombre_5-6" x1="125.05" y1="105.72" x2="125.05" y2="144.22" xlink:href="#Degradado_sin_nombre_5"/><linearGradient id="Degradado_sin_nombre_5-7" x1="299.63" y1="82.63" x2="299.63" y2="288.13" xlink:href="#Degradado_sin_nombre_5"/><linearGradient id="Degradado_sin_nombre_5-8" x1="258.78" y1="235.89" x2="258.78" y2="362.78" xlink:href="#Degradado_sin_nombre_5"/><linearGradient id="Degradado_sin_nombre_5-9" x1="145.61" y1="155.03" x2="145.61" y2="363.14" xlink:href="#Degradado_sin_nombre_5"/><linearGradient id="Degradado_sin_nombre_5-10" x1="186.33" y1="82.13" x2="186.33" y2="208.62" xlink:href="#Degradado_sin_nombre_5"/><linearGradient id="Degradado_sin_nombre_5-11" x1="320.26" y1="300.63" x2="320.26" y2="339.97" xlink:href="#Degradado_sin_nombre_5"/><linearGradient id="Degradado_sin_nombre_5-12" x1="125.03" y1="300.68" x2="125.03" y2="340.01" xlink:href="#Degradado_sin_nombre_5"/><linearGradient id="Degradado_sin_nombre_5-13" x1="320.23" y1="105.4" x2="320.23" y2="144.61" xlink:href="#Degradado_sin_nombre_5"/><linearGradient id="Degradado_sin_nombre_5-14" x1="125.05" y1="105.36" x2="125.05" y2="144.57" xlink:href="#Degradado_sin_nombre_5"/><linearGradient id="Degradado_sin_nombre_5-15" x1="299.63" y1="82.27" x2="299.63" y2="288.48" xlink:href="#Degradado_sin_nombre_5"/><linearGradient id="Degradado_sin_nombre_5-16" x1="258.78" y1="235.54" x2="258.78" y2="363.13" xlink:href="#Degradado_sin_nombre_5"/><linearGradient id="Degradado_sin_nombre_5-17" x1="149.64" y1="185.72" x2="149.64" y2="199.86" xlink:href="#Degradado_sin_nombre_5"/></defs><g class="cls-2"><g id="Layer_2" data-name="Layer 2"><g id="Capa_1" data-name="Capa 1"><circle class="cls-1" cx="280.08" cy="225.21" r="222.63"/><g class="cls-3"><rect class="cls-4" width="564.63" height="564.63"/></g><path class="cls-5" d="M155.23,181.21a23.56,23.56,0,0,0-.09,2.38A42,42,0,0,1,143,213.85c-3.87,3.82-7.73,7.62-11.49,11.55A35.65,35.65,0,0,1,102.43,236c-.6-.05-1.21-.09-1.81-.1-10.32-.24-20.2,7.66-17.67,18.66,2.5,10.85,5.69,23.34,24.37,23a11.1,11.1,0,0,1,1.74.3c11.43,1.48,22.05,7.37,30.06,15.55q6.13,6.4,12.08,13c7.47,8.43,13.31,18.85,15.26,30,.12.66.27,1.34.46,2,1.58,5.8,5.21,11,9.44,15.17,4,3.93,9,7.49,14.47,8.72,11,2.46,18.15-7.55,17.83-17.52-.42-12.73-11.51-23.41-24-25l-.44-.06c-10.62-1.17-20.11-7-27.33-14.7-5.66-6.16-11.16-12.46-17-18.48-7.19-7.51-13.3-16.9-14.52-27.45,0,0,0-.09,0-.13s0-.09,0-.13c-1.22-9.79,2.1-19.05,8.8-26.34C139.41,227,144.54,221.38,150,216c7.75-7.59,18.43-11.6,29.1-12l.5,0c13.72-.68,26.17-11.45,26.38-25.64a22.67,22.67,0,0,0-24.42-22.92C168.36,156.43,156.47,168,155.23,181.21Z" transform="translate(57.44 2.57)"/><path class="cls-6" d="M264.09,155.48a23.3,23.3,0,0,0-2.51-.1c-11.57.13-24-4-32.13-12.53-3.81-3.95-7.59-7.95-11.41-11.9A35.07,35.07,0,0,1,208.45,102c.08-.58.14-1.17.17-1.75.39-7-3.34-14.73-10.37-17-8-2.57-19.23,1.58-25.16,6.84-3.44,3.07-4.88,7.4-6.12,11.85-1.14,4.08-.46,8-1.71,12.13a63.34,63.34,0,0,1-14.09,24.12q-6,6.57-12.19,13a54,54,0,0,1-29.69,15.67c-.68.1-1.36.33-2.08.42-15.1,2-21.81,12.73-24.28,23.63a13.53,13.53,0,0,0,3.29,12.66c3.72,3.74,9.14,5,14.2,4.67,12.32-.68,23.24-11,25-23.29l.06-.43c1.31-10.4,7.37-19.71,14.55-27.08,5.89-6,11.44-12.21,17.14-18.35,7.17-7.56,16.51-13.42,27-14.6l.13,0h.13a31.85,31.85,0,0,1,26.3,9.18c5.42,5.48,10.68,11.1,16.13,16.53a41.77,41.77,0,0,1,12.27,28.41c0,.16,0,.31,0,.47.55,14.18,13.23,24.85,27,25.16,12.92.29,24.81-9.14,23.83-22.75C289.09,168.19,277.18,156.7,264.09,155.48Z" transform="translate(57.44 2.57)"/><path class="cls-7" d="M302.69,329.25a48.64,48.64,0,0,1,26.48-26.47c2.2-.85,7.78-3.14,9.87-.71,1.94,2.25-1.65,6.4-2.9,8.05a138,138,0,0,1-12.49,13.58,137.11,137.11,0,0,1-13.6,12.5c-1.67,1.27-5.79,4.81-8.05,2.83C299.59,336.91,301.82,331.46,302.69,329.25Z" transform="translate(57.44 2.57)"/><path class="cls-8" d="M109.14,310.12c-1.22-1.6-4.84-5.79-2.9-8,2.1-2.41,7.64-.1,9.86.77,11.53,4.5,22,15.07,26.49,26.59.85,2.19,3.11,7.6.69,9.65-2.26,1.92-6.43-1.67-8.05-2.91a137,137,0,0,1-13.6-12.49A138.12,138.12,0,0,1,109.14,310.12Z" transform="translate(57.44 2.57)"/><path class="cls-9" d="M302.64,115.92c-.85-2.16-3.07-7.54-.66-9.59s6.4,1.61,8.07,2.88a139.27,139.27,0,0,1,13.59,12.49,138.34,138.34,0,0,1,12.5,13.6c1.22,1.6,4.84,5.78,2.84,8-2.16,2.35-7.74,0-9.92-.92C317.66,137.78,307.14,127.37,302.64,115.92Z" transform="translate(57.44 2.57)"/><path class="cls-10" d="M109.14,135.3a138.44,138.44,0,0,1,12.5-13.61,137.92,137.92,0,0,1,13.59-12.48c1.62-1.24,5.78-4.83,8.06-3,2.43,2,.18,7.32-.66,9.47-4.52,11.46-15,21.92-26.41,26.54-2.21.9-7.76,3.31-9.92,1C104.3,141.07,108,136.85,109.14,135.3Z" transform="translate(57.44 2.57)"/><path class="cls-11" d="M260.52,124.55l.49.06c11.3,1.27,21.49,7.62,29.19,15.78,4.55,4.92,9,9.91,13.76,14.69,7.78,7.94,14.37,17.86,15.78,29.12a.59.59,0,0,1,0,.14c0,.15,0,.31.07.46a32,32,0,0,1-9.67,27.9c-3.83,3.61-7.72,7.15-11.35,11-8.34,8.76-20.15,13.15-32.06,13.07h-.59c-14.38.13-26.72,11.79-27,26.29-.26,13.72,10.55,26,24.73,25.07,13.75-.94,25.51-13.49,26.47-27.07l0-.56c.54-11.49,4.94-23.45,13.13-31.7,3.82-3.81,7.66-7.59,11.62-11.25a37.77,37.77,0,0,1,29.07-9.41l.43,0c5.09.35,10.54-.87,14.31-4.62,3.4-3.37,4.27-8.06,3.37-12.67-3-15.59-10.42-21.59-24.54-23.65-.28,0-.54-.13-.81-.18a61.28,61.28,0,0,1-30.84-17q-5.75-5.91-11.35-12c-7.71-8.44-13.89-18.93-16.3-30.18-.08-.38-.18-.77-.28-1.16-2.83-10.49-13-21.37-23.77-23.73s-18.17,7-17.83,17.07C237,112.58,248.35,122.93,260.52,124.55Z" transform="translate(57.44 2.57)"/><path class="cls-12" d="M180.94,287.59a21.55,21.55,0,0,0,2.54.07c11.94-.34,24.17,4.36,32.34,13.2,3.8,4.08,7.51,8.23,11.29,12.32a36.87,36.87,0,0,1,9.65,29.68c-.08.6-.14,1.2-.16,1.8-.44,10.16,6.76,20.23,17.92,17.74,5.59-1.25,12.89-3.38,16.86-7.42,4.21-4.27,5.54-11.09,7-16.94.15-.58.27-1.14.37-1.7,2-11.2,7.91-21.84,15.45-30.24q6-6.53,12.09-12.87c8-8.1,18.45-13.87,29.81-15.32a19.61,19.61,0,0,1,2.08-.37c14.38-.08,21.77-12.15,24.12-23,2.41-11.13-7.18-18.58-17.42-18.62-12.54,0-23.22,10.42-24.95,22.73l-.06.44c-1.33,10.62-7.33,20-14.61,27.65-5.81,6-11.36,12.26-17,18.45-7.12,7.66-16.59,13.72-27.18,14.85H261l-.14,0a31.7,31.7,0,0,1-26.54-9.51c-5.47-5.72-10.69-11.63-16-17.49A47.29,47.29,0,0,1,206,262.67c0-.17,0-.33,0-.5a27.2,27.2,0,0,0-27.1-25.84c-13.48,0-24.92,10.61-24,24.41C155.77,274.22,167.42,286.47,180.94,287.59Z" transform="translate(57.44 2.57)"/><g class="cls-13"><path class="cls-14" d="M194.16,363.14a15.57,15.57,0,0,1-3.4-.39c-6.14-1.37-11.35-5.55-14.65-8.82a35.26,35.26,0,0,1-9.53-15.33c-.18-.68-.34-1.38-.46-2.07-2.29-13.09-9.52-23.45-15.17-29.84-4.06-4.48-8.12-8.85-12.08-13-8.37-8.56-19-14-29.86-15.45a5.44,5.44,0,0,1-.7-.15,3.83,3.83,0,0,0-1-.15c-8.46.14-14.53-2.3-18.54-7.47-3.61-4.65-5-10.85-6.18-15.83a14.07,14.07,0,0,1,2.82-12.47,19.27,19.27,0,0,1,15.2-6.62c.66,0,1.26.05,1.83.1a35.32,35.32,0,0,0,28.8-10.52c3.86-4,7.92-8,11.5-11.55a41.74,41.74,0,0,0,12-30,21.66,21.66,0,0,1,.1-2.42c1.24-13.38,13.21-25.08,26.68-26.08a23.19,23.19,0,0,1,17.59,6.23,22.71,22.71,0,0,1,7.2,17.06,25.32,25.32,0,0,1-8.23,18.13,29.6,29.6,0,0,1-18.48,7.85h-.5c-11.05.42-21.58,4.76-28.88,11.91-4.17,4.06-8.22,8.39-12.13,12.57q-1.86,2-3.73,4a32.22,32.22,0,0,0-8.72,26l0,.26c1.06,9.19,5.91,18.36,14.42,27.26,3.93,4.06,7.77,8.31,11.48,12.43,1.8,2,3.66,4,5.5,6.05,7.82,8.34,17.44,13.52,27.11,14.59l.45,0A28.85,28.85,0,0,1,201.44,328,25.45,25.45,0,0,1,209,344.87c.19,6-2.22,11.78-6.3,15.16A13.13,13.13,0,0,1,194.16,363.14Zm-86.8-85.88a4.44,4.44,0,0,1,1.11.18c.22.05.43.1.63.13,11,1.42,21.79,7,30.27,15.65,4,4.14,8,8.51,12.1,13,5.72,6.45,13,16.93,15.34,30.18a18.13,18.13,0,0,0,.45,2c1.4,5.15,4.63,10.34,9.34,15,3.23,3.2,8.34,7.29,14.31,8.63a12.83,12.83,0,0,0,11.35-2.57c3.92-3.25,6.24-8.85,6.05-14.61a24.69,24.69,0,0,0-7.37-16.44,28.05,28.05,0,0,0-16.34-8.22l-.44-.05c-9.83-1.09-19.61-6.35-27.54-14.81-1.85-2-3.71-4.07-5.5-6.06-3.72-4.11-7.56-8.37-11.47-12.42-8.62-9-13.54-18.32-14.62-27.65l0-.27a32.88,32.88,0,0,1,8.9-26.61q1.88-2,3.73-4c3.92-4.19,8-8.52,12.16-12.59,7.42-7.27,18.11-11.69,29.33-12.11h.08l.42,0a28.84,28.84,0,0,0,18-7.66,24.6,24.6,0,0,0,8-17.63,22,22,0,0,0-7-16.54,22.52,22.52,0,0,0-17.06-6c-13.14,1-24.82,12.39-26,25.45h0a22.77,22.77,0,0,0-.09,2.34,42.43,42.43,0,0,1-12.24,30.52c-3.58,3.52-7.63,7.51-11.48,11.54a36.06,36.06,0,0,1-29.37,10.73c-.56-.06-1.14-.09-1.78-.11A18.6,18.6,0,0,0,86,242.63a13.42,13.42,0,0,0-2.68,11.87c2.34,10.16,5.24,22.77,23.38,22.77h.69Z" transform="translate(57.44 2.57)"/><path class="cls-15" d="M99.05,208.62c-3.6,0-9.06-.78-13.07-4.82a13.89,13.89,0,0,1-3.39-13c2.21-9.73,8.26-21.77,24.58-23.9a10.19,10.19,0,0,0,1.1-.22c.31-.07.64-.15,1-.2a53.34,53.34,0,0,0,29.5-15.57c4-4.13,8.07-8.49,12.17-13a62.9,62.9,0,0,0,14-24,26.8,26.8,0,0,0,.89-6.18,28.46,28.46,0,0,1,.82-5.94c1.27-4.54,2.7-8.88,6.22-12a32.82,32.82,0,0,1,11.95-6.44c5-1.51,9.82-1.68,13.55-.47,7.46,2.41,11,10.56,10.61,17.35,0,.6-.09,1.2-.17,1.79a34.71,34.71,0,0,0,9.5,28.63l6,6.23c1.81,1.89,3.62,3.79,5.44,5.67,7.47,7.81,19.16,12.43,31.35,12.43h.52a24,24,0,0,1,2.55.1h0c13.53,1.26,25.32,13.06,26.27,26.29a20.4,20.4,0,0,1-5.6,15.69,25.2,25.2,0,0,1-18.59,7.43,29.31,29.31,0,0,1-18.7-7.46,25.61,25.61,0,0,1-8.66-18c0-.14,0-.27,0-.41v-.07a41.42,41.42,0,0,0-12.16-28.16c-3.05-3-6.09-6.19-9-9.23-2.32-2.4-4.72-4.89-7.11-7.3a31.49,31.49,0,0,0-26-9.09l-.27,0c-12.11,1.36-21.27,8.64-26.83,14.5-1.71,1.84-3.43,3.72-5.1,5.55-3.89,4.24-7.91,8.63-12,12.8-5.8,6-13,15.46-14.45,26.88l-.06.43c-1.82,12.54-13,22.91-25.35,23.6C100,208.6,99.55,208.62,99.05,208.62ZM192.89,82.83a32.05,32.05,0,0,0-19.56,7.53c-3.39,3-4.78,7.24-6,11.68a28.06,28.06,0,0,0-.79,5.8,27.58,27.58,0,0,1-.92,6.34,63.69,63.69,0,0,1-14.17,24.26c-4.11,4.47-8.21,8.84-12.19,13a54.13,54.13,0,0,1-29.9,15.77,8.72,8.72,0,0,0-.91.19c-.38.09-.77.18-1.17.24-15.92,2.07-21.83,13.84-24,23.35a13.2,13.2,0,0,0,3.19,12.34c4.39,4.41,10.61,4.76,13.93,4.57,12.07-.67,22.92-10.78,24.7-23l.06-.41c1.45-11.62,8.77-21.25,14.65-27.29,4.11-4.16,8.13-8.55,12-12.79,1.67-1.82,3.4-3.71,5.11-5.55,5.64-6,14.95-13.33,27.26-14.71l.27,0A32.18,32.18,0,0,1,211,133.38c2.4,2.42,4.8,4.91,7.12,7.31,2.93,3,6,6.19,9,9.22a42.11,42.11,0,0,1,12.37,28.65v.06c0,.14,0,.27,0,.4.52,13.37,12.49,24.51,26.68,24.82a24.47,24.47,0,0,0,18.07-7.21,19.42,19.42,0,0,0,5.4-15.16c-.93-12.91-12.43-24.41-25.64-25.64a22.57,22.57,0,0,0-2.47-.11c-12.58.13-24.67-4.58-32.39-12.63q-2.73-2.84-5.44-5.68c-1.95-2-4-4.16-6-6.23A35.41,35.41,0,0,1,208.11,102c.08-.57.14-1.15.17-1.72.36-6.54-3-14.35-10.14-16.66A17,17,0,0,0,192.89,82.83Z" transform="translate(57.44 2.57)"/><path class="cls-16" d="M303.64,340a2.73,2.73,0,0,1-1.87-.69c-2.51-2.21-.48-7.43.5-9.94l.09-.23a48.75,48.75,0,0,1,26.69-26.66l.26-.1c2.54-1,7.82-3,10-.51,2,2.27-1,6-2.53,8-.13.18-.26.33-.36.47a131.64,131.64,0,0,1-11.94,13l-1.34,1.34a130.63,130.63,0,0,1-12.88,11.78l-.44.34C308.29,338,305.77,340,303.64,340Zm-.63-10.6-.09.23c-.85,2.17-2.83,7.27-.69,9.16,1.86,1.64,5.44-1.15,7.16-2.49l.45-.35a130.17,130.17,0,0,0,12.81-11.72l1.34-1.34a129.86,129.86,0,0,0,11.87-13c.11-.14.24-.3.37-.48,1.34-1.71,4.13-5.28,2.55-7.12-1.86-2.16-7-.15-9.22.7l-.26.1C318,307.47,307.42,318,303,329.37Z" transform="translate(57.44 2.57)"/><path class="cls-17" d="M141.69,340c-2.13,0-4.68-2-6.22-3.18l-.45-.35A132.88,132.88,0,0,1,122,324.54l-1-1.05a133.05,133.05,0,0,1-12.06-13.17h0l-.36-.46c-1.45-1.87-4.48-5.74-2.52-8,2.18-2.51,7.44-.44,10,.56l.28.11a49.18,49.18,0,0,1,26.69,26.78l.1.27c1,2.48,3,7.65.49,9.78A2.71,2.71,0,0,1,141.69,340ZM109.42,309.9a132.49,132.49,0,0,0,12,13.09l1,1.06a131.19,131.19,0,0,0,13,11.87l.46.36c1.72,1.34,5.3,4.13,7.15,2.56,2.14-1.81.16-6.84-.68-9l-.1-.27A48.45,48.45,0,0,0,116,303.19l-.28-.11c-2.2-.86-7.34-2.88-9.2-.75-1.58,1.81,1.21,5.38,2.55,7.1l.37.47Z" transform="translate(57.44 2.57)"/><path class="cls-18" d="M336.17,144.61c-2.4,0-5.27-1.15-6.94-1.83l-.3-.12C317.28,138,306.84,127.55,302.32,116l-.08-.21c-1-2.47-3-7.62-.48-9.77,2.3-2,6,1,8.05,2.51l.45.35a131.15,131.15,0,0,1,12.9,11.81l1.33,1.32a132.56,132.56,0,0,1,11.93,13c.1.14.22.29.36.46,1.45,1.87,4.48,5.74,2.46,8A4,4,0,0,1,336.17,144.61Zm-32.57-38.5a2.07,2.07,0,0,0-1.39.48c-2.15,1.83-.17,6.84.68,9l.08.21c4.45,11.33,14.74,21.62,26.22,26.22l.3.12c2.2.89,7.33,3,9.23.89,1.63-1.77-1.15-5.33-2.49-7.05l-.37-.47a132,132,0,0,0-11.86-13l-1.33-1.33a130.7,130.7,0,0,0-12.83-11.74l-.46-.36C308,108.07,305.51,106.11,303.6,106.11Z" transform="translate(57.44 2.57)"/><path class="cls-19" d="M109.08,144.57a4,4,0,0,1-3-1.1c-2-2.19,1-6.07,2.47-7.93l.35-.46a134.91,134.91,0,0,1,12-13.14l1.07-1.07a133.1,133.1,0,0,1,13.06-12l.46-.35c2-1.57,5.74-4.48,8-2.59,2.53,2.07.51,7.16-.46,9.61l-.1.25c-4.55,11.54-15,22-26.61,26.74l-.32.13C114.35,143.39,111.47,144.57,109.08,144.57Zm.06-9.28.28.21c-.1.14-.23.29-.36.47-1.34,1.71-4.13,5.27-2.5,7,1.9,2.06,7,0,9.2-.93l.33-.13a49.38,49.38,0,0,0,26.22-26.34l.1-.26c.84-2.11,2.8-7.06.66-8.81-1.87-1.54-5.44,1.26-7.16,2.6l-.47.36a132.64,132.64,0,0,0-13,11.89l-1.06,1.06a133.2,133.2,0,0,0-12,13.07Z" transform="translate(57.44 2.57)"/><path class="cls-20" d="M262.35,288.48a22.46,22.46,0,0,1-15.61-6.32A25.79,25.79,0,0,1,238.82,263c.28-14.55,12.54-26.5,27.34-26.63h.6c12.3.08,23.88-4.65,31.8-13,2.89-3,6-5.93,9-8.74l2.37-2.22a31.48,31.48,0,0,0,9.56-27.61v-.11c0-.12,0-.24-.05-.35l0-.14c-1.23-9.81-6.51-19.54-15.68-28.92-3.64-3.68-7.2-7.55-10.64-11.29q-1.56-1.71-3.14-3.41c-8.45-9-18.74-14.52-29-15.67l-.49-.06h0a29.72,29.72,0,0,1-16.57-8.25,24.63,24.63,0,0,1-7.65-16.56,18.22,18.22,0,0,1,6.08-14.64,13.77,13.77,0,0,1,12.18-2.79c10.47,2.3,21,12.83,24,24,.11.42.21.81.29,1.17,2.83,13.25,10.38,23.64,16.21,30,3.8,4.08,7.62,8.1,11.34,11.94a61.11,61.11,0,0,0,30.66,16.88l.33.08a4.4,4.4,0,0,0,.47.1c14.94,2.18,21.9,8.89,24.82,23.93,1,5.16-.22,9.77-3.46,13-2,2-6.58,5.26-14.58,4.72l-.42,0a37.25,37.25,0,0,0-28.82,9.33c-4.21,3.89-8.23,7.86-11.61,11.24-7.7,7.75-12.45,19.22-13,31.46l0,.57a29.93,29.93,0,0,1-8.54,18.49,28.27,28.27,0,0,1-18.25,8.91C263.4,288.46,262.88,288.48,262.35,288.48Zm4-51.41h-.22c-14.42.13-26.37,11.77-26.64,25.94a25.08,25.08,0,0,0,7.7,18.64,21.8,21.8,0,0,0,16.66,6.08,27.55,27.55,0,0,0,17.8-8.69A29.67,29.67,0,0,0,290,261l0-.55c.59-12.42,5.41-24.05,13.24-31.93,3.38-3.38,7.41-7.36,11.63-11.26a38,38,0,0,1,29.33-9.51l.42,0c3.32.23,9.56-.06,14.05-4.52,3.07-3.05,4.23-7.44,3.27-12.36-1.5-7.72-4.05-13-8-16.71-3.74-3.47-8.9-5.59-16.23-6.66l-.54-.11-.3-.08a61.7,61.7,0,0,1-31-17.07c-3.74-3.84-7.56-7.87-11.36-11.95-5.89-6.45-13.52-17-16.39-30.35-.07-.35-.16-.73-.28-1.14-2.94-10.92-13.26-21.24-23.5-23.48A13.08,13.08,0,0,0,242.79,86,17.5,17.5,0,0,0,237,100.05a23.89,23.89,0,0,0,7.45,16.09,29,29,0,0,0,16.16,8.06h0l.48.06c10.39,1.16,20.84,6.8,29.4,15.88l3.15,3.42c3.43,3.73,7,7.6,10.61,11.27,9.29,9.49,14.64,19.36,15.88,29.32l0,.14c0,.11,0,.23.05.34v.12A32.11,32.11,0,0,1,310.4,213L308,215.18c-3,2.8-6.09,5.7-9,8.71-8,8.38-19.63,13.18-32,13.18h-.68Z" transform="translate(57.44 2.57)"/><path class="cls-21" d="M251.14,363.13a13.26,13.26,0,0,1-8.68-3.17c-4.09-3.43-6.47-9.3-6.21-15.32,0-.54.08-1.12.17-1.83,1.38-10.61-2-21.05-9.56-29.4-1.69-1.83-3.39-3.69-5-5.5-2-2.24-4.15-4.56-6.25-6.82A42.45,42.45,0,0,0,183.49,288a25,25,0,0,1-2.58-.07c-13.63-1.14-25.46-13.33-26.37-27.18a22.45,22.45,0,0,1,6.07-17A25.07,25.07,0,0,1,178.9,236h0a27.6,27.6,0,0,1,27.45,26.17c0,.17,0,.33,0,.5a46.8,46.8,0,0,0,12.22,30.15l3.77,4.18c4,4.4,8.06,8.95,12.23,13.3a31.23,31.23,0,0,0,26.24,9.41l.28,0c9.49-1,19.06-6.24,26.95-14.74,1.28-1.4,2.55-2.81,3.83-4.22,4.26-4.71,8.66-9.58,13.16-14.23,8.46-8.85,13.35-18.09,14.52-27.45,0-.15,0-.29.05-.44,1.83-12.93,12.9-23,25.23-23h.08c6.05,0,11.66,2.52,15,6.69a14.23,14.23,0,0,1,2.75,12.35c-2.43,11.21-10.13,23.22-24.46,23.31a4.84,4.84,0,0,0-1.18.19,8.2,8.2,0,0,1-.86.18c-10.75,1.37-21.26,6.77-29.6,15.21-4,4.11-8,8.44-12.09,12.86-8.08,9-13.54,19.69-15.36,30.06-.1.54-.22,1.12-.38,1.73s-.32,1.26-.48,1.9c-1.32,5.31-2.82,11.32-6.64,15.2-3.15,3.2-8.72,5.65-17,7.51A15.52,15.52,0,0,1,251.14,363.13Zm-66.42-75.84a43,43,0,0,1,31.36,13.33c2.1,2.26,4.22,4.58,6.26,6.82l5,5.5a37,37,0,0,1,9.74,30c-.09.69-.14,1.25-.16,1.77-.25,5.81,2,11.46,6,14.75a12.92,12.92,0,0,0,11.53,2.63c8.19-1.83,13.65-4.22,16.7-7.32,3.69-3.74,5.16-9.66,6.46-14.88.16-.64.32-1.28.48-1.9s.28-1.16.37-1.68c1.85-10.5,7.36-21.3,15.53-30.41,4-4.43,8.12-8.76,12.11-12.88,8.45-8.55,19.11-14,30-15.42a6,6,0,0,0,.78-.16,5.86,5.86,0,0,1,1.34-.21c13.93-.08,21.42-11.81,23.79-22.75a13.61,13.61,0,0,0-2.61-11.77c-3.22-4-8.63-6.41-14.47-6.43-12,0-22.84,9.81-24.61,22.43l-.06.43c-1.19,9.51-6.14,18.88-14.7,27.85-4.49,4.64-8.9,9.5-13.15,14.21l-3.83,4.23c-8,8.62-17.74,13.93-27.4,15l-.27,0a31.89,31.89,0,0,1-26.82-9.61c-4.18-4.37-8.29-8.92-12.25-13.32l-3.77-4.18a47.49,47.49,0,0,1-12.4-30.59c0-.18,0-.34,0-.5a26.89,26.89,0,0,0-26.75-25.5h0a24.37,24.37,0,0,0-17.78,7.57,21.72,21.72,0,0,0-5.88,16.46,28.59,28.59,0,0,0,8.19,17.84A27.78,27.78,0,0,0,181,287.24h0a23.48,23.48,0,0,0,2.5.07Z" transform="translate(57.44 2.57)"/></g><circle class="cls-22" cx="149.64" cy="192.79" r="7.07"/></g></g></g></svg>